<?xml version="1.0"?>
<svg width="1280" height="791" xmlns="http://www.w3.org/2000/svg" xmlns:svg="http://www.w3.org/2000/svg" preserveAspectRatio="xMidYMid meet">
 <metadata>Created by potrace 1.15, written by Peter Selinger 2001-2017</metadata>
 <g class="layer">
  <title>Layer 1</title>
  <g fill="#ff5722" id="svg_1" transform="translate(0 791) scale(0.1 -0.1)">
   <path d="m6881,7894c-83,-22 -150,-62 -222,-134c-105,-104 -113,-127 -218,-635c-49,-242 -155,-757 -235,-1145c-80,-388 -210,-1022 -290,-1410c-80,-388 -179,-869 -220,-1070c-69,-336 -190,-924 -476,-2315c-60,-291 -114,-560 -120,-597c-25,-160 46,-347 172,-450c227,-186 554,-150 729,82c77,101 57,23 279,1103c60,295 160,778 220,1072c61,294 160,776 220,1070c61,294 160,776 220,1070c61,294 160,776 220,1070c148,717 327,1593 345,1682c39,189 -6,345 -134,474c-71,72 -138,111 -228,134c-71,19 -191,18 -262,-1z" fill="#438099" id="svg_2"/>
   <path d="m3050,7110c-64,-11 -139,-42 -191,-77c-24,-17 -657,-642 -1405,-1389c-1482,-1479 -1403,-1394 -1439,-1545c-19,-82 -19,-159 0,-234c38,-146 -41,-61 1429,-1534c894,-896 1381,-1377 1421,-1402c92,-61 176,-83 298,-76c118,6 184,29 276,95c161,118 240,345 185,533c-42,142 6,90 -1241,1339l-1163,1165l1155,1155c636,635 1169,1175 1185,1199c67,100 97,260 71,380c-56,261 -317,436 -581,391z" fill="#438099" id="svg_3"/>
   <path d="m9554,7106c-189,-43 -345,-200 -385,-387c-26,-120 4,-280 71,-380c16,-24 549,-564 1185,-1199l1155,-1155l-1163,-1165c-1247,-1249 -1199,-1197 -1241,-1339c-55,-188 24,-415 185,-533c92,-66 158,-89 276,-95c122,-7 206,15 298,76c40,25 527,506 1421,1402c1470,1473 1391,1388 1429,1534c19,75 19,152 0,234c-36,151 43,66 -1439,1545c-748,747 -1383,1374 -1411,1392c-104,69 -259,98 -381,70z" fill="#438099" id="svg_4"/>
  </g>
  <text fill="#000000" font-family="Cursive" font-size="39" id="svg_8" stroke-dasharray="null" stroke-linecap="null" stroke-linejoin="null" stroke-width="0" text-anchor="middle" x="349.5" xml:space="preserve" y="330.5"/>
  <text fill="#13a5a5" font-family="Cursive" font-size="39" id="svg_10" stroke-dasharray="null" stroke-linecap="null" stroke-linejoin="null" stroke-width="0" text-anchor="middle" transform="matrix(23.6747 0 0 10.5256 -5929.32 -2884)" x="267.196669" xml:space="preserve" y="317.950276">s</text>
 </g>
</svg>